<svg xmlns="http://www.w3.org/2000/svg" width="512" height="512" fill="none" viewBox="0 0 512 512">
  <path fill="#1B1C20" d="M0 0h382c71.797 0 130 58.203 130 130v382H130C58.203 512 0 453.797 0 382V0z"/>
  <path fill="#fff" d="M274.248 155.288h-68.4c-3.312 0-6.048 2.592-6.048 6.048v203.616c0 3.312 2.736 6.048 6.048 6.048h30.24c3.312 0 6.048-2.736 6.048-6.048V273.8l68.256 93.024A10.095 10.095 0 00318.6 371h37.008c2.736 0 4.752-2.304 4.752-4.752 0-.864-.288-1.872-1.008-2.736l-72.864-98.352c22.032-3.168 34.848-18.576 34.848-41.472 0-24.192-17.568-39.888-44.928-39.888h-40.32c-3.312 0-6.048 2.592-6.048 6.048v41.76c0 3.312 2.736 6.048 6.048 6.048s6.048-2.736 6.048-6.048v-35.712h34.272c20.016 0 32.832 9.648 32.832 27.792 0 16.128-7.776 30.384-34.272 30.384h-2.448c-2.736 0-4.752 2.16-4.752 4.608 0 1.008.288 2.016 1.008 2.88l72.144 97.344h-21.312l-73.872-100.656c-2.016-2.736-5.04-4.176-8.352-4.176h-1.296c-3.312 0-6.048 2.592-6.048 6.048v98.784h-18.144v-191.52h62.352c39.456 0 65.232 21.6 65.232 56.304 0 18.864-7.056 35.568-21.312 45.648-1.728 1.152-2.736 3.024-2.736 4.896 0 3.456 2.736 6.192 6.048 6.192 1.296 0 2.448-.432 3.6-1.152 16.992-11.952 26.496-31.824 26.496-55.584 0-38.304-27.648-68.4-77.328-68.4z"/>
</svg>
