<svg xmlns="http://www.w3.org/2000/svg" width="192" height="192" fill="none" viewBox="0 0 192 192">
  <path fill="#1B1C20" d="M0 0h143.25C170.174 0 192 21.826 192 48.75V192H48.75C21.826 192 0 170.174 0 143.25V0z"/>
  <path fill="#fff" d="M102.843 58.233h-25.65a2.247 2.247 0 00-2.268 2.268v76.356a2.282 2.282 0 002.268 2.268h11.34a2.282 2.282 0 002.268-2.268v-34.182l25.596 34.884a3.786 3.786 0 003.078 1.566h13.878c1.026 0 1.782-.864 1.782-1.782 0-.324-.108-.702-.378-1.026l-27.324-36.882c8.262-1.188 13.068-6.966 13.068-15.552 0-9.072-6.588-14.958-16.848-14.958h-15.12a2.247 2.247 0 00-2.268 2.268v15.66a2.282 2.282 0 002.268 2.268 2.282 2.282 0 002.268-2.268V73.461h12.852c7.506 0 12.312 3.618 12.312 10.422 0 6.048-2.916 11.394-12.852 11.394h-.918c-1.026 0-1.782.81-1.782 1.728 0 .378.108.756.378 1.08l27.054 36.504h-7.992L92.151 96.843c-.756-1.026-1.89-1.566-3.132-1.566h-.486a2.247 2.247 0 00-2.268 2.268v37.044h-6.804v-71.82h23.382c14.796 0 24.462 8.1 24.462 21.114 0 7.074-2.646 13.338-7.992 17.118-.648.432-1.026 1.134-1.026 1.836 0 1.296 1.026 2.322 2.268 2.322.486 0 .918-.162 1.35-.432 6.372-4.482 9.936-11.934 9.936-20.844 0-14.364-10.368-25.65-28.998-25.65z"/>
</svg>
