<svg xmlns="http://www.w3.org/2000/svg" width="64" height="64" fill="none" viewBox="0 0 64 64">
  <path fill="#1B1C20" d="M0 0h47.75C56.725 0 64 7.275 64 16.25V64H16.25C7.275 64 0 56.725 0 47.75V0z"/>
  <path fill="#fff" d="M34.281 19.411h-8.55a.75.75 0 00-.756.756v25.452a.76.76 0 00.756.756h3.78a.76.76 0 00.756-.756V34.225l8.532 11.628c.234.324.612.522 1.026.522h4.626a.6.6 0 00.594-.594.538.538 0 00-.126-.342l-9.108-12.294c2.754-.396 4.356-2.322 4.356-5.184 0-3.024-2.196-4.986-5.616-4.986h-5.04a.75.75 0 00-.756.756v5.22a.76.76 0 00.756.756.76.76 0 00.756-.756v-4.464h4.284c2.502 0 4.104 1.206 4.104 3.474 0 2.016-.972 3.798-4.284 3.798h-.306a.584.584 0 00-.594.576.55.55 0 00.126.36l9.018 12.168h-2.664l-9.234-12.582a1.271 1.271 0 00-1.044-.522h-.162a.75.75 0 00-.756.756v12.348h-2.268v-23.94h7.794c4.932 0 8.154 2.7 8.154 7.038 0 2.358-.882 4.446-2.664 5.706a.748.748 0 00-.342.612c0 .432.342.774.756.774a.833.833 0 00.45-.144c2.124-1.494 3.312-3.978 3.312-6.948 0-4.788-3.456-8.55-9.666-8.55z"/>
</svg>
